  <svg width="24" height="24" viewBox="0 0 12 12" fill="none" xmlns="http://www.w3.org/2000/svg">
              <path d="M4.61538 0H7.38461C8.06154 0 8.68205 0.101652 9.24615 0.304955C9.81026 0.508259 10.2974 0.797967 10.7077 1.17408C11.1179 1.55019 11.4359 2.00254 11.6615 2.53113C11.8872 3.04956 12 3.62897 12 4.26938C12 4.84879 11.8872 5.39263 11.6615 5.90089C11.4359 6.39898 11.1179 6.83609 10.7077 7.2122C10.3077 7.57815 9.82564 7.86785 9.26154 8.08132C8.69744 8.29479 8.07179 8.40153 7.38461 8.40153V12H4.61538V8.40153C3.93846 8.40153 3.31795 8.29987 2.75385 8.09657C2.18974 7.89327 1.70256 7.60356 1.29231 7.22745C0.882051 6.85133 0.564103 6.40407 0.338462 5.88564C0.112821 5.35705 0 4.77255 0 4.13215C0 3.60356 0.0871795 3.12071 0.261539 2.68361C0.435897 2.23634 0.666667 1.84498 0.953846 1.50953C1.24103 1.16391 1.57436 0.879288 1.95385 0.655654C2.33333 0.421855 2.73333 0.259212 3.15385 0.167725L3.89231 2.43964C3.81026 2.45997 3.69744 2.52097 3.55385 2.62262C3.42051 2.7141 3.28718 2.83609 3.15385 2.98856C3.03077 3.14104 2.92308 3.31893 2.83077 3.52224C2.73846 3.72554 2.69231 3.93901 2.69231 4.16264C2.69231 4.42694 2.74359 4.67598 2.84615 4.90978C2.95897 5.13342 3.10256 5.33164 3.27692 5.50445C3.46154 5.66709 3.66667 5.79924 3.89231 5.90089C4.1282 6.00254 4.36923 6.05337 4.61538 6.05337V0ZM7.38461 6.08386C7.63077 6.08386 7.86667 6.03304 8.09231 5.93139C8.3282 5.82973 8.53333 5.69759 8.70769 5.53494C8.89231 5.36213 9.0359 5.16391 9.13846 4.94028C9.25128 4.71665 9.30769 4.48285 9.30769 4.23888C9.30769 3.98475 9.25128 3.74079 9.13846 3.50699C9.0359 3.27319 8.89231 3.07497 8.70769 2.91233C8.53333 2.73952 8.3282 2.60229 8.09231 2.50064C7.86667 2.39898 7.63077 2.34816 7.38461 2.34816V6.08386Z" fill="white" />
</svg>
